<?xml version="1.0" encoding="UTF-8"?>
<!-- Generated by jsxcad -->
<!DOCTYPE svg PUBLIC "-//W3C//DTD SVG 1.1 Tiny//EN" "http://www.w3.org/Graphics/SVG/1.1/DTD/svg11-tiny.dtd">
<svg baseProfile="tiny" height="0.8000000000000005mm" width="0.6928203230275515mm" viewBox="0 0 0.6928203230275515 0.8000000000000005" version="1.1" stroke="black" stroke-width=".1" fill="none" xmlns="http://www.w3.org/2000/svg">
<path fill="#000000" stroke="#000000" d="M0.34641 0.65 L0.24473 0.62839 L0.16062 0.56728 L0.10865 0.47725 L0.09778 0.37387 L0.1299 0.275 L0.19946 0.19775 L0.29443 0.15546 L0.39839 0.15546 L0.49336 0.19775 L0.56292 0.275 L0.59504 0.37387 L0.58417 0.47725 L0.5322 0.56728 L0.44809 0.62839 z"/>
<path fill="#000000" stroke="#000000" d="M0.5899922318991476 0.42190023458205306 L0.5841746853739015 0.47725049245264084 L0.5841746853739015 0.47725049245264084 L0.5950404084622832 0.37387004293111586 L0.5950404084622832 0.37387004293111586 z"/>
<path fill="#000000" stroke="#000000" d="M0.5841750576357264 0.4772529200273481 L0.5321984240843699 0.5672790901446867 L0.5321984240843699 0.5672790901446867 L0.5841750576357264 0.4772529200273481 z"/>
<path fill="#000000" stroke="#000000" d="M0.44808976448648374 0.6283896758434542 L0.44808976448648374 0.6283896758434542 L0.5322000060403206 0.567280008313788 L0.5322000060403206 0.567280008313788 z"/>
<path fill="#000000" stroke="#000000" d="M0.4933601657001876 0.1977498508028809 L0.5629180739563382 0.27500173421750257 L0.5629180739563382 0.27500173421750257 L0.4933601657001876 0.1977498508028809 z"/>
<path fill="#000000" stroke="#000000" d="M0.5629168454903319 0.2750010249623231 L0.5950411965077487 0.3738696112310657 L0.5950411965077487 0.3738696112310657 L0.5629168454903319 0.2750010249623231 z"/>
<path fill="#000000" stroke="#000000" d="M0.44923857634798525 0.17810319757477824 L0.4933609954345771 0.1977477642173338 L0.4933609954345771 0.1977477642173338 L0.3983885312569072 0.1554632988509978 L0.3983885312569072 0.1554632988509978 z"/>
<path fill="#000000" stroke="#000000" d="M0.34640999999999994 0.15546309981654882 L0.39838999999999997 0.15546309981654885 L0.39838999999999997 0.15546309981654885 L0.29442999999999997 0.1554630998165488 L0.29442999999999997 0.1554630998165488 z"/>
<path fill="#000000" stroke="#000000" d="M0.24358147709197972 0.17810331760290496 L0.29443152218305785 0.15546341887912446 L0.29443152218305785 0.15546341887912446 L0.19945905800538793 0.19774788424546047 L0.19945905800538793 0.19774788424546047 z"/>
<path fill="#000000" stroke="#000000" d="M0.3464100069817998 0.6500000328467856 L0.3464100069817998 0.6500000328467856 L0.44808944747678364 0.6283874005826403 L0.44808944747678364 0.6283874005826403 z"/>
<path fill="#000000" stroke="#000000" d="M0.1299021044402243 0.27500189484648896 L0.19946001269637487 0.1977500114318673 L0.19946001269637487 0.1977500114318673 L0.1299021044402243 0.27500189484648896 z"/>
<path fill="#000000" stroke="#000000" d="M0.09777909567341639 0.37386970616648113 L0.12990344669083312 0.2750011198977385 L0.12990344669083312 0.2750011198977385 L0.09777909567341639 0.37386970616648113 z"/>
<path fill="#000000" stroke="#000000" d="M0.10282808759894024 0.42190020100145087 L0.09777991103580462 0.3738700093505137 L0.09777991103580462 0.3738700093505137 L0.10864563412418636 0.47725045887203865 L0.10864563412418636 0.47725045887203865 z"/>
<path fill="#000000" stroke="#000000" d="M0.16062181818629365 0.5672789502696539 L0.10864518463493714 0.47725278015231526 L0.10864518463493714 0.47725278015231526 L0.16062181818629365 0.5672789502696539 z"/>
<path fill="#000000" stroke="#000000" d="M0.2447303471167904 0.6283895222347253 L0.16062010556295359 0.5672798547050591 L0.16062010556295359 0.5672798547050591 L0.2447303471167904 0.6283895222347253 z"/>
<path fill="#000000" stroke="#000000" d="M0.24473056648681588 0.6283873348890693 L0.24473056648681588 0.6283873348890693 L0.3464100069817997 0.6499999671532147 L0.3464100069817997 0.6499999671532147 z"/>
<path fill="#000000" stroke="#000000" d="M0 0.2 L0.34641 0 L0.69282 0.2 L0.69282 0.6 L0.34641 0.8 L0 0.6 z"/>
<path fill="#000000" stroke="#000000" d="M0.3464100403784438 -6.993751627123036e-8 L0.3464100403784438 -6.993751627123036e-8 L0.6928200807568876 0.19999986012496743 L0.6928200807568876 0.19999986012496743 z"/>
<path fill="#000000" stroke="#000000" d="M0.6928203230275513 0.6 L0.6928203230275513 0.6 L0.6928203230275513 0.2 L0.6928203230275513 0.2 z"/>
<path fill="#000000" stroke="#000000" d="M-7.483326243969501e-17 0.6000000000000001 L-7.483326243969501e-17 0.6000000000000001 L0.3464100403784438 0.7999999300624837 L0.3464100403784438 0.7999999300624837 z"/>
<path fill="#000000" stroke="#000000" d="M0.34641004037844403 0.8000000699375166 L0.34641004037844403 0.8000000699375166 L0.6928200807568878 0.6000001398750329 L0.6928200807568878 0.6000001398750329 z"/>
<path fill="#000000" stroke="#000000" d="M2.2204460492503126e-16 0.19999999999999998 L2.2204460492503126e-16 0.19999999999999998 L2.775557561562891e-16 0.5999999999999999 L2.775557561562891e-16 0.5999999999999999 z"/>
<path fill="#000000" stroke="#000000" d="M1.6367780234033328e-16 0.2000000000000003 L1.6367780234033328e-16 0.2000000000000003 L0.34641004037844403 6.993751660429726e-8 L0.34641004037844403 6.993751660429726e-8 z"/>
<path fill="#000000" stroke="#000000" d="M0.34641 0 L0 0.2 L0 0.6 L0.34641 0.8 L0.69282 0.6 L0.69282 0.2 z"/>
</svg>